<svg xmlns="http://www.w3.org/2000/svg" xmlns:xlink="http://www.w3.org/1999/xlink" width="100" height="100" viewBox="0 0 100 100"><rect width="100%" height="100%" fill="#84ceeb"></rect><g transform="translate(50 50) scale(0.69 0.69) rotate(0) translate(-50 -50)" style="fill:#5680e9"><svg fill="#5680e9" xmlns="http://www.w3.org/2000/svg" xmlns:xlink="http://www.w3.org/1999/xlink" version="1.1" x="0px" y="0px" viewBox="0 0 100 100" style="enable-background:new 0 0 100 100;" xml:space="preserve"><path d="M50,49.8l-9.4-12.9L40,37.8l10,13.7l10-13.8l-0.6-0.9L50,49.8z M36.2,40.1L45.5,53l-15.3,5l0.7,0.9l16.2-5.3l-10-13.8  L36.2,40.1z M63.8,40.1l-0.9-0.3L53,53.7L69.1,59l0.7-0.9l-15.3-5L63.8,40.1z M68.1,63.2v-0.9l-16.2-5.2v17l1,0.3V58.3L68.1,63.2z   M47.3,74.5l1-0.3l-0.1-17L32,62.4v0.9l15.2-4.9L47.3,74.5z M38.4,33.8l-3.7-5.1L50,7.2l15.4,21.5l-3.7,5.1l1.7,2.4l2.7,0.8l3.7-5.2  l25.3,8L79.3,61.2l-5.9-1.9l-1.8,2.4v2.8l6,1.9l0.2,26.5l-25.1-8.4v-6.2l-2.7-1l-2.7,0.9v6.2l-25.1,8.4l0.2-26.4l6-1.9v-2.9  l-1.8-2.4l-5.9,1.9L5,39.9l25.2-8l3.7,5.2l2.7-0.9L38.4,33.8z"></path></svg></g></svg>